<svg width="320" height="313" viewBox="0 0 320 313" fill="none" xmlns="http://www.w3.org/2000/svg">
<rect x="1.5" y="1.5" width="317" height="310" rx="8.5" stroke="white" stroke-width="3"/>
<rect x="8" y="162" width="304" height="143" rx="4" fill="#474747"/>
<rect x="12" y="166" width="296" height="23" rx="2" fill="#D9D9D9"/>
<path d="M19 181V180H18V179H20V180H23V178H19V177H18V175H19V174H24V175H25V176H23V175H20V177H24V178H25V180H24V181H19ZM29.8 181V175H27.8V174H33.8V175H31.8V181H29.8ZM35.6 181V174H41.6V175H42.6V178H40.6V179H41.6V180H42.6V181H39.6V180H38.6V179H37.6V181H35.6ZM37.6 178H39.6V177H40.6V175H37.6V178ZM44.4 181V174H51.4V175H46.4V177H50.4V178H46.4V180H51.4V181H44.4ZM53.2 181V174H55.2V175H56.2V176H57.2V177H58.2V174H60.2V181H58.2V179H57.2V178H56.2V177H55.2V181H53.2ZM64 181V180H63V179H62V176H63V175H64V174H69V175H65V176H64V179H65V180H67V178H66V177H69V181H64ZM73.8 181V175H71.8V174H77.8V175H75.8V181H73.8ZM79.6 181V174H81.6V177H84.6V174H86.6V181H84.6V178H81.6V181H79.6Z" fill="#202020"/>
<line x1="130" y1="171" x2="130" y2="185" stroke="#474747" stroke-width="2" stroke-linecap="round"/>
<line x1="130" y1="171" x2="130" y2="185" stroke="black" stroke-opacity="0.2" stroke-width="2" stroke-linecap="round"/>
<line x1="190" y1="171" x2="190" y2="185" stroke="#474747" stroke-width="2" stroke-linecap="round"/>
<line x1="190" y1="171" x2="190" y2="185" stroke="black" stroke-opacity="0.2" stroke-width="2" stroke-linecap="round"/>
<rect x="12" y="194" width="296" height="23" rx="2" fill="#D9D9D9"/>
<path d="M21 209V208H20V207H19V206H18V202H20V205H21V206H22V205H23V202H25V206H24V207H23V208H22V209H21ZM27.8 209V208H29.8V203H27.8V202H33.8V203H31.8V208H33.8V209H27.8ZM38.6 209V203H36.6V202H42.6V203H40.6V209H38.6ZM44.4 209V204H45.4V203H46.4V202H49.4V203H50.4V204H51.4V209H49.4V207H46.4V209H44.4ZM46.4 206H49.4V204H48.4V203H47.4V204H46.4V206ZM54.2 209V202H56.2V208H60.2V209H54.2ZM63 209V208H65V203H63V202H69V203H67V208H69V209H63ZM73.8 209V203H71.8V202H77.8V203H75.8V209H73.8ZM82.6 209V206H81.6V205H80.6V202H82.6V205H84.6V202H86.6V205H85.6V206H84.6V209H82.6Z" fill="#202020"/>
<line x1="130" y1="199" x2="130" y2="213" stroke="#474747" stroke-width="2" stroke-linecap="round"/>
<line x1="130" y1="199" x2="130" y2="213" stroke="black" stroke-opacity="0.2" stroke-width="2" stroke-linecap="round"/>
<line x1="190" y1="199" x2="190" y2="213" stroke="#474747" stroke-width="2" stroke-linecap="round"/>
<line x1="190" y1="199" x2="190" y2="213" stroke="black" stroke-opacity="0.2" stroke-width="2" stroke-linecap="round"/>
<rect x="12" y="222" width="296" height="23" rx="2" fill="#D9D9D9"/>
<path d="M18 237V230H25V231H20V233H24V234H20V236H25V237H18ZM26.8 237V230H28.8V231H29.8V232H30.8V233H31.8V230H33.8V237H31.8V235H30.8V234H29.8V233H28.8V237H26.8ZM35.6 237V230H40.6V231H41.6V232H42.6V235H41.6V236H40.6V237H35.6ZM37.6 236H39.6V235H40.6V232H39.6V231H37.6V236ZM45.4 237V236H44.4V230H46.4V236H49.4V230H51.4V236H50.4V237H45.4ZM53.2 237V230H59.2V231H60.2V234H58.2V235H59.2V236H60.2V237H57.2V236H56.2V235H55.2V237H53.2ZM55.2 234H57.2V233H58.2V231H55.2V234ZM62 237V232H63V231H64V230H67V231H68V232H69V237H67V235H64V237H62ZM64 234H67V232H66V231H65V232H64V234ZM70.8 237V230H72.8V231H73.8V232H74.8V233H75.8V230H77.8V237H75.8V235H74.8V234H73.8V233H72.8V237H70.8ZM81.6 237V236H80.6V235H79.6V232H80.6V231H81.6V230H85.6V231H86.6V232H84.6V231H82.6V232H81.6V235H82.6V236H84.6V235H86.6V236H85.6V237H81.6ZM88.4 237V230H95.4V231H90.4V233H94.4V234H90.4V236H95.4V237H88.4Z" fill="#202020"/>
<line x1="130" y1="227" x2="130" y2="241" stroke="#474747" stroke-width="2" stroke-linecap="round"/>
<line x1="130" y1="227" x2="130" y2="241" stroke="black" stroke-opacity="0.2" stroke-width="2" stroke-linecap="round"/>
<line x1="190" y1="227" x2="190" y2="241" stroke="#474747" stroke-width="2" stroke-linecap="round"/>
<line x1="190" y1="227" x2="190" y2="241" stroke="black" stroke-opacity="0.2" stroke-width="2" stroke-linecap="round"/>
<rect x="12" y="250" width="296" height="23" rx="2" fill="#D9D9D9"/>
<path d="M19 265V264H18V263H20V264H23V262H19V261H18V259H19V258H24V259H25V260H23V259H20V261H24V262H25V264H24V265H19ZM29.8 265V259H27.8V258H33.8V259H31.8V265H29.8ZM35.6 265V260H36.6V259H37.6V258H40.6V259H41.6V260H42.6V265H40.6V263H37.6V265H35.6ZM37.6 262H40.6V260H39.6V259H38.6V260H37.6V262ZM44.4 265V258H46.4V259H47.4V260H48.4V259H49.4V258H51.4V265H49.4V261H48.4V263H47.4V261H46.4V265H44.4ZM54.2 265V264H56.2V259H54.2V258H60.2V259H58.2V264H60.2V265H54.2ZM62 265V258H64V259H65V260H66V261H67V258H69V265H67V263H66V262H65V261H64V265H62ZM70.8 265V260H71.8V259H72.8V258H75.8V259H76.8V260H77.8V265H75.8V263H72.8V265H70.8ZM72.8 262H75.8V260H74.8V259H73.8V260H72.8V262Z" fill="#202020"/>
<line x1="130" y1="255" x2="130" y2="269" stroke="#474747" stroke-width="2" stroke-linecap="round"/>
<line x1="130" y1="255" x2="130" y2="269" stroke="black" stroke-opacity="0.2" stroke-width="2" stroke-linecap="round"/>
<line x1="190" y1="255" x2="190" y2="269" stroke="#474747" stroke-width="2" stroke-linecap="round"/>
<line x1="190" y1="255" x2="190" y2="269" stroke="black" stroke-opacity="0.2" stroke-width="2" stroke-linecap="round"/>
<rect x="12" y="278" width="296" height="23" rx="2" fill="#D9D9D9"/>
<path d="M19 293V286H21V292H25V293H19ZM27.8 293V292H26.8V286H28.8V292H31.8V286H33.8V292H32.8V293H27.8ZM37.6 293V292H36.6V291H35.6V288H36.6V287H37.6V286H41.6V287H42.6V288H40.6V287H38.6V288H37.6V291H38.6V292H40.6V291H42.6V292H41.6V293H37.6ZM44.4 293V286H46.4V289H47.4V288H48.4V287H49.4V286H51.4V287H50.4V288H49.4V289H48.4V290H49.4V291H50.4V292H51.4V293H48.4V292H47.4V291H46.4V293H44.4Z" fill="#202020"/>
<line x1="130" y1="283" x2="130" y2="297" stroke="#474747" stroke-width="2" stroke-linecap="round"/>
<line x1="130" y1="283" x2="130" y2="297" stroke="black" stroke-opacity="0.2" stroke-width="2" stroke-linecap="round"/>
<line x1="190" y1="283" x2="190" y2="297" stroke="#474747" stroke-width="2" stroke-linecap="round"/>
<line x1="190" y1="283" x2="190" y2="297" stroke="black" stroke-opacity="0.2" stroke-width="2" stroke-linecap="round"/>
<rect x="8" y="8" width="304" height="111" rx="4" fill="#474747"/>
<rect x="8" y="124" width="304" height="33" rx="4" fill="#474747"/>
<rect x="12" y="128" width="177" height="25" rx="2" fill="#D9D9D9"/>
<path d="M18 144V139H19V138H20V137H23V138H24V139H25V144H23V142H20V144H18ZM20 141H23V139H22V138H21V139H20V141ZM29.4 144V143H28.4V142H27.4V139H29.4V142H31.4V139H33.4V142H32.4V143H31.4V144H29.4ZM35.8 144V143H34.8V142H35.8V141H39.8V140H35.8V139H40.8V140H41.8V144H35.8ZM36.8 143H39.8V142H36.8V143ZM46.2 138V137H48.2V138H46.2ZM44.2 144V143H46.2V140H45.2V139H48.2V143H50.2V144H44.2ZM52.6 144V143H54.6V138H53.6V137H56.6V143H58.6V144H52.6ZM61 144V143H60V142H61V141H65V140H61V139H66V140H67V144H61ZM62 143H65V142H62V143ZM69.4 144V143H68.4V137H70.4V139H74.4V140H75.4V143H74.4V144H69.4ZM70.4 143H73.4V140H70.4V143ZM77.8 144V143H79.8V138H78.8V137H81.8V143H83.8V144H77.8ZM86.2 144V143H85.2V140H86.2V139H91.2V140H92.2V142H87.2V143H91.2V144H86.2ZM87.2 141H90.2V140H87.2V141ZM102 144V137H108V138H109V141H108V142H104V144H102ZM104 141H107V138H104V141ZM111.4 144V143H110.4V140H111.4V139H116.4V140H117.4V143H116.4V144H111.4ZM112.4 143H115.4V140H112.4V143ZM121.8 138V137H123.8V138H121.8ZM119.8 144V143H121.8V140H120.8V139H123.8V143H125.8V144H119.8ZM127.2 144V139H133.2V140H134.2V144H132.2V140H129.2V144H127.2ZM138.6 144V140H136.6V139H138.6V137H140.6V139H142.6V140H140.6V144H138.6ZM144 144V143H149V142H145V141H144V140H145V139H150V140H146V141H150V142H151V143H150V144H144ZM154.4 140V138H156.4V140H154.4ZM154.4 143V141H156.4V143H154.4Z" fill="#202020"/>
<rect x="194" y="128" width="114" height="25" rx="2" fill="#D9D9D9"/>
<path d="M199 140V139H201V134H199V133H205V134H203V139H205V140H199ZM206.4 140V135H212.4V136H213.4V140H211.4V136H208.4V140H206.4ZM215.8 140V139H214.8V136H215.8V135H221.8V136H216.8V139H221.8V140H215.8ZM226.2 136H227.2V137H226.2V140H224.2V135H226.2V136ZM230.2 135V136H227.2V135H230.2ZM232.6 140V139H231.6V136H232.6V135H237.6V136H238.6V138H233.6V139H237.6V140H232.6ZM233.6 137H236.6V136H233.6V137ZM240 140V135H246V136H247V140H245V136H244V140H242V136H241V140H240ZM249.4 140V139H248.4V136H249.4V135H254.4V136H255.4V138H250.4V139H254.4V140H249.4ZM250.4 137H253.4V136H250.4V137ZM256.8 140V135H262.8V136H263.8V140H261.8V136H258.8V140H256.8ZM268.2 140V136H266.2V135H268.2V133H270.2V135H272.2V136H270.2V140H268.2ZM198 149V143H204V144H205V146H204V147H200V149H198ZM200 146H203V144H200V146ZM207.4 148V147H206.4V144H207.4V143H212.4V144H213.4V147H212.4V148H207.4ZM208.4 147H211.4V144H208.4V147ZM217.8 142V141H219.8V142H217.8ZM215.8 148V147H217.8V144H216.8V143H219.8V147H221.8V148H215.8ZM223.2 148V143H229.2V144H230.2V148H228.2V144H225.2V148H223.2ZM234.6 148V144H232.6V143H234.6V141H236.6V143H238.6V144H236.6V148H234.6ZM240 148V147H245V146H241V145H240V144H241V143H246V144H242V145H246V146H247V147H246V148H240ZM257.8 148V147H256.8V141H258.8V143H262.8V144H263.8V147H262.8V148H257.8ZM258.8 147H261.8V144H258.8V147ZM266.2 149V148H270.2V147H266.2V146H265.2V143H267.2V146H270.2V143H272.2V148H271.2V149H266.2ZM275.6 144V142H277.6V144H275.6ZM275.6 147V145H277.6V147H275.6Z" fill="#202020"/>
<rect x="283.75" y="130.75" width="21.5" height="19.5" rx="1.25" fill="white" stroke="#474747" stroke-width="1.5"/>
</svg>
